/* XPM */
static const char *_Depict[] = {
/* columns rows colors chars-per-pixel */
"32 32 229 2",
"   c #5D251D",
".  c #602C26",
"X  c #6B2D25",
"o  c #752D24",
"O  c #7E2F25",
"+  c #65322C",
"@  c #73342C",
"#  c #653934",
"$  c #613E39",
"%  c #773A32",
"&  c #35410F",
"*  c #056933",
"=  c #10723D",
"-  c #615926",
";  c #61423E",
":  c #60602B",
">  c #29385D",
",  c #1B1B7F",
"<  c #2E1E62",
"1  c #012370",
"2  c #163A75",
"3  c #2B2B75",
"4  c #23237A",
"5  c #353570",
"6  c #3A3A72",
"7  c #5D234B",
"8  c #64264C",
"9  c #622751",
"0  c #431B66",
"q  c #482677",
"w  c #57367C",
"e  c #67376B",
"r  c #014D4D",
"t  c #094B54",
"y  c #004D5E",
"u  c #21447A",
"i  c #306D69",
"p  c #64524D",
"a  c #87342A",
"s  c #893429",
"d  c #91362B",
"f  c #97382E",
"g  c #9A392D",
"h  c #843D35",
"j  c #883B32",
"k  c #913E34",
"l  c #993B30",
"z  c #A23C2F",
"x  c #A23C30",
"c  c #8D4239",
"v  c #9D453B",
"b  c #9C493F",
"n  c #AD4034",
"m  c #B04134",
"M  c #853140",
"N  c #843749",
"B  c #993944",
"V  c #864D47",
"C  c #9B574F",
"Z  c #90475A",
"A  c #935F59",
"S  c #A5574D",
"D  c #AC584F",
"F  c #B8594D",
"G  c #A95C53",
"H  c #B65952",
"J  c #856741",
"K  c #B9665C",
"L  c #9E736D",
"P  c #B56E66",
"I  c #BC6A62",
"U  c #BD766E",
"Y  c #A67F7A",
"T  c #B17A74",
"R  c #BB7A73",
"E  c #C05E51",
"W  c #C16D63",
"Q  c #C37D75",
"!  c #038103",
"~  c #008B00",
"^  c #088108",
"/  c #0B8D0C",
"(  c #019301",
")  c #009E00",
"_  c #0B9E0B",
"`  c #00871F",
"'  c #108710",
"]  c #138913",
"[  c #188C18",
"{  c #159215",
"}  c #1E9515",
"|  c #25951D",
" . c #02A402",
".. c #01AA01",
"X. c #01B101",
"o. c #00BA00",
"O. c #00B60A",
"+. c #0AB40A",
"@. c #00AB14",
"#. c #00A61B",
"$. c #19A619",
"%. c #00B417",
"&. c #14B314",
"*. c #1FB31F",
"=. c #1CBA1C",
"-. c #21A11C",
";. c #1CA62B",
":. c #27AC27",
">. c #23B223",
",. c #26BC26",
"<. c #23A630",
"1. c #3AAD3A",
"2. c #00C100",
"3. c #00C900",
"4. c #00CC0D",
"5. c #00D100",
"6. c #00D900",
"7. c #00E200",
"8. c #00EB00",
"9. c #00F200",
"0. c #2AC12A",
"q. c #29CA29",
"w. c #33CC33",
"e. c #3BA74C",
"r. c #4BB54B",
"t. c #5BBE64",
"y. c #44C544",
"u. c #50C850",
"i. c #50D851",
"p. c #62CF62",
"a. c #62D161",
"s. c #6BDB6B",
"d. c #7BCD7B",
"f. c #74D474",
"g. c #7EDD7E",
"h. c #04058D",
"j. c #000F8F",
"k. c #150C89",
"l. c #001184",
"z. c #001E82",
"x. c #151586",
"c. c #010195",
"v. c #000B90",
"b. c #05059F",
"n. c #0B0B9D",
"m. c #0D1790",
"M. c #141491",
"N. c #21158C",
"B. c #271F97",
"V. c #211C9F",
"C. c #263D8E",
"Z. c #0202A4",
"A. c #0A0AA6",
"S. c #0303AC",
"D. c #0D0BAB",
"F. c #1313AE",
"G. c #1D1DAF",
"H. c #0101B2",
"J. c #0E0EB0",
"K. c #0000BB",
"L. c #1617B1",
"P. c #1E1DB4",
"I. c #1C1BBC",
"U. c #2121AE",
"Y. c #2D2DB7",
"T. c #3131B5",
"R. c #3E3EBC",
"E. c #573B84",
"W. c #4943AE",
"Q. c #4040B9",
"!. c #0000C2",
"~. c #0000CB",
"^. c #0000D2",
"/. c #0000DA",
"(. c #2627C5",
"). c #2E2CC3",
"_. c #3131C0",
"`. c #3C3CCD",
"'. c #0000E3",
"]. c #0000EB",
"[. c #0000F2",
"{. c #5151C3",
"}. c #5E5EC4",
"|. c #4949D5",
" X c #5D5DD1",
".X c #6C6EC6",
"XX c #7676CE",
"oX c #7C7CCF",
"OX c #6263D7",
"+X c #AB8985",
"@X c #AE8D89",
"#X c #C58D86",
"$X c #C3908A",
"%X c #C39791",
"&X c #C79D97",
"*X c #C79D98",
"=X c #C89E99",
"-X c #CBABA7",
";X c #CAAEAA",
":X c #CDB8B6",
">X c #CEBEBD",
",X c #80D780",
"<X c #80D880",
"1X c #8AD38A",
"2X c #9EE19E",
"3X c #A8DFA8",
"4X c #AFE1AF",
"5X c #ACE9AC",
"6X c #B9E6B9",
"7X c #BBEABB",
"8X c #BDF0BD",
"9X c #CEC0BE",
"0X c #8A8AD6",
"qX c #8D8DD8",
"wX c #9999DA",
"eX c #8282E0",
"rX c #A09EE8",
"tX c #A5A5E4",
"yX c #ABABE4",
"uX c #B7B7E5",
"iX c #B9B9E5",
"pX c #BCBCEC",
"aX c #CBF3CB",
"sX c #DCF5DC",
"dX c #C6C8EE",
"fX c #CBCCF0",
"gX c #D6D6F1",
"hX c #D8D8F1",
"jX c None",
/* pixels */
"jXjXjXjXjXjXjXjXjXjXjXjXjXjXjXjXjXjXjXjXjXjXjXjXjXjXjXjXjXjXjXjX",
"jXjXjXjXjXjXjXjXjXjXjXjXjXjXjXjXjXjXjXjXjXjXjXjXjXjXjXjXjXjXjXjX",
"jXjXjXjXjXjXjXjXjXjXjXjXjXjXjXjXjXjXjXjXjXjXjXjXjXjXjXjXjXjXjXjX",
"jXjXjXjXjXjXjXjXjXjXjXjXjXjXjXjXjXjXX V L +X@XY A % jXjXjXjXjXjX",
"jXjXjXjXjXjXjXjXjXjXjXjXjXjXjXjXjXc T ;X>X>X>X>X:X%XC @ jXjXjXjX",
"jXjXjXjXjXjXjXjX] [ ' jXjXjXjX. c R -X;X;X;X;X;X;X;X%XS @ jXjXjX",
"jXjXjXjXjX{ r.1X4X6X3Xd.1./ & h S $X&X&X&X&X&X&X&X&X&XP b X jXjX",
"jXjXjX^ :.g.aXsXsXsXsXsX8Xa.| - S #X#X#X#X#X$X#X#X#X#XP v j   jX",
"jXjX^ >.s.6X6X6X7X7X7X7X7X5Xi.-.- U Q Q Q Q Q Q Q Q Q G k k X jX",
"jXjX$.w.g.5X2X2X2X2X2X2X2X2Xs.q.} J I I W W W W I W K k a a o jX",
"jX/ =.0.f.<X<X<X,Xg.g.g.<X<Xa.;.= > E.E.w e Z H E F v a s s O . ",
"jX_ &.&.u.p.p.p.p.p.p.p.a.t.i C..XyXdXfXpX0XW.q N l d d d d s + ",
"!  . . .*.y.y.y.r.y.y.y.e.u R.rXgXgXgXgXgXgXpXOXB.7 g g f f d + ",
"~  .......&.,.,.,.,.,.<.2 ).eXiXuXuXuXuXiXiXiXtX|.V.8 x z z d # ",
"~ ..X.X.X.X.X.+.+.+.+.t P.`.qXwXwXwXwXwXwXwXwXwX X(.N.M m x a ; ",
"( o.o.o.o.o.o.o.o.o.` m.I._.XXoXoXoXoXoXoXoXoXoX{.I.L.0 m m @ jX",
"( o.2.2.2.2.2.2.2.o.r A.J.P.W.}.}.}.}.}.}.}.}.}.Y.J.J.k.B l $ jX",
"! o.3.3.3.3.3.3.3.O.1 Z.S.S.U.R.R.Q.Q.Q.Q.Q.Q.T.A.S.Z.c.9 @ jXjX",
"jX..5.5.5.5.5.5.5.@.l.S.S.Z.S.F.U.U.U.U.U.U.P.A.S.S.S.Z.< p jXjX",
"jX~ 3.6.6.6.6.6.6.#.v.H.H.H.H.H.H.H.S.D.S.S.H.H.H.H.S.S.x.jXjXjX",
"jXjX) 6.7.7.7.6.8.%.j.K.K.K.K.K.K.K.K.K.K.K.K.K.K.K.K.H., jXjXjX",
"jXjXjX .6.8.8.8.8.4.z.!.!.!.!.!.!.!.!.!.!.K.!.!.!.!.!.S.4 jXjXjX",
"jXjXjXjX) 2.7.8.9.8.y !.~.~.~.~.~.~.~.~.~.~.~.~.~.~.~.n.6 jXjXjX",
"jXjXjXjXjXjX( +.o.2.* H.^.^.^.^.^.^.^.^.^.^.^.^.^.^.~.x.jXjXjXjX",
"jXjXjXjXjXjXjXjXjXjXjXh.~./././././././././././././.S.5 jXjXjXjX",
"jXjXjXjXjXjXjXjXjXjXjXjXZ./.'.'.'.'.'.'.'.'.'.'.'.K.4 jXjXjXjXjX",
"jXjXjXjXjXjXjXjXjXjXjXjXjXZ./.].].].].].].].].].K.4 jXjXjXjXjXjX",
"jXjXjXjXjXjXjXjXjXjXjXjXjXjXc.K./.].[.[.[.'.~.n.3 jXjXjXjXjXjXjX",
"jXjXjXjXjXjXjXjXjXjXjXjXjXjXjXjXv.A.S.J.A.M.4 jXjXjXjXjXjXjXjXjX",
"jXjXjXjXjXjXjXjXjXjXjXjXjXjXjXjXjXjXjXjXjXjXjXjXjXjXjXjXjXjXjXjX",
"jXjXjXjXjXjXjXjXjXjXjXjXjXjXjXjXjXjXjXjXjXjXjXjXjXjXjXjXjXjXjXjX",
"jXjXjXjXjXjXjXjXjXjXjXjXjXjXjXjXjXjXjXjXjXjXjXjXjXjXjXjXjXjXjXjX"
};
